<svg width="26" height="10" viewBox="0 0 26 10" fill="none" xmlns="http://www.w3.org/2000/svg">
<path d="M26.0003 7.66551C25.9557 7.78589 25.9164 7.90836 25.865 8.02526C25.6782 8.44764 25.3546 8.68423 24.9099 8.74476C24.6676 8.77747 24.4673 8.6383 24.4314 8.42328C24.3928 8.19157 24.514 8.0016 24.7698 7.96611C25.0561 7.92645 25.2078 7.75666 25.2179 7.48946C25.2382 6.94531 25.224 6.39976 25.224 5.82569C24.9749 5.82569 24.74 5.82847 24.5058 5.825C24.1877 5.81943 24.0205 5.67678 24.0212 5.42001C24.0226 5.16325 24.1877 5.02825 24.5106 5.02129C24.5993 5.01921 24.6886 5.02129 24.7773 5.02129C24.7834 4.99903 24.7895 4.97676 24.7955 4.95449C24.6676 4.88212 24.5444 4.79862 24.4111 4.73878C23.4831 4.32266 22.5017 4.11391 21.5067 3.95804C20.2234 3.75694 18.932 3.72772 17.6371 3.73259C15.0996 3.74163 12.5614 3.73537 10.0239 3.73467C9.93115 3.73467 9.83707 3.73885 9.74501 3.72702C9.51218 3.6971 9.35447 3.52383 9.36191 3.31856C9.37004 3.1105 9.53587 2.94141 9.76871 2.93376C10.0983 2.92332 10.4286 2.93097 10.7583 2.92958C10.8239 2.92958 10.8896 2.92262 10.9701 2.91775C10.9701 2.21286 10.9701 1.52189 10.9701 0.799598C10.5654 0.799598 10.1687 0.784289 9.77412 0.803077C9.15954 0.832303 8.54563 0.886579 7.93105 0.927633C7.6576 0.945725 7.52426 1.07724 7.47688 1.3688C7.39362 1.88025 7.26502 2.38334 7.14725 2.93097C7.47688 2.93097 7.77943 2.92332 8.08131 2.93306C8.38048 2.9428 8.55104 3.15712 8.48742 3.4285C8.43463 3.65396 8.26609 3.71728 8.06777 3.73398C6.98074 3.82513 6.02976 3.56628 5.29267 2.66725C4.96507 2.26783 4.93326 2.28453 4.47097 2.50372C3.64385 2.89479 2.75988 3.02143 1.86846 3.12303C1.64172 3.14877 1.41565 3.178 1.19093 3.21627C0.900562 3.26637 0.781435 3.40902 0.771959 3.70684C0.767221 3.85297 0.771282 3.99979 0.771282 4.15984C1.09414 4.2336 1.60043 4.0492 1.56862 4.62327C1.54087 5.11245 1.09617 4.94475 0.789557 5.0039C0.789557 5.43323 0.76113 5.86744 0.798357 6.29469C0.828138 6.64192 1.05962 6.87433 1.38587 6.97523C1.86169 7.12275 2.34226 7.25635 2.84381 7.40248C2.92706 6.58625 3.2594 5.91963 3.92204 5.4555C4.37688 5.1375 4.88317 4.99555 5.43345 5.03591C6.14686 5.08879 6.72692 5.40818 7.17297 5.98017C7.61495 6.54659 7.74626 7.20347 7.66504 7.93062C11.3661 7.93062 15.0407 7.93062 18.7093 7.93062C18.7397 7.5834 18.7316 7.232 18.8067 6.90077C19.0849 5.6733 20.22 4.90718 21.4966 5.05748C22.6134 5.18899 23.542 6.2592 23.561 7.43797C23.5813 8.71136 22.7149 9.78505 21.5162 9.96389C20.5259 10.1114 19.7449 9.74052 19.1587 8.9236C19.0667 8.79556 18.978 8.74894 18.8277 8.74894C15.08 8.75242 11.3329 8.75242 7.58517 8.74894C7.43356 8.74894 7.34557 8.79765 7.25622 8.92638C6.72828 9.68346 5.9993 10.0655 5.09773 9.99102C4.12509 9.91031 3.42726 9.37729 3.03942 8.44973C2.97715 8.30081 2.89187 8.2368 2.75514 8.19783C2.25968 8.05657 1.7649 7.91184 1.27012 7.76641C0.445039 7.52355 0.0111751 6.9293 0.0104982 6.0428C0.0104982 5.29476 0.0382493 4.54534 0.002376 3.79939C-0.0294362 3.13764 0.367877 2.48146 1.25523 2.39239C2.15207 2.30193 3.06785 2.25948 3.90715 1.87677C4.68553 1.52119 5.44834 1.12734 6.20845 0.732101C7.15334 0.239442 8.15102 -0.00410402 9.20895 7.10514e-05C10.317 0.00424613 11.425 0.00494197 12.5337 7.10514e-05C13.7317 -0.00549571 14.8329 0.315985 15.8408 0.98678C16.7559 1.59565 17.6757 2.19616 18.601 2.78902C18.7289 2.87113 18.8947 2.92262 19.0457 2.93028C20.6945 3.01587 22.3311 3.17939 23.9129 3.70127C24.2175 3.80148 24.5174 3.92186 24.8104 4.05407C25.3973 4.31779 25.7607 4.78679 25.9415 5.41305C25.9577 5.46942 25.9814 5.523 26.001 5.57797C26.0003 6.27382 26.0003 6.96966 26.0003 7.66551ZM11.7681 2.90801C13.6214 2.90801 15.4462 2.90801 17.2703 2.90801C17.2784 2.88714 17.2872 2.86556 17.2953 2.84469C16.4134 2.30402 15.5517 1.72507 14.6448 1.23311C13.7594 0.752976 12.7753 0.764805 11.783 0.812123C11.7776 0.902583 11.7695 0.97843 11.7695 1.05497C11.7675 1.6694 11.7681 2.28384 11.7681 2.90801ZM19.4985 7.51173C19.4978 8.44764 20.2241 9.20054 21.1351 9.20681C22.0468 9.21307 22.8056 8.43511 22.7968 7.50338C22.788 6.57094 22.0516 5.82708 21.1392 5.82778C20.2247 5.82778 19.4992 6.57303 19.4985 7.51173ZM5.27575 5.82708C4.36402 5.82708 3.62693 6.57303 3.62016 7.50477C3.61339 8.43859 4.37079 9.21446 5.28319 9.20681C6.19424 9.19915 6.91915 8.44764 6.91847 7.51033C6.91712 6.57164 6.19085 5.82708 5.27575 5.82708ZM6.3533 2.62828C6.37834 2.61645 6.40339 2.60393 6.42843 2.5921C6.51168 2.20451 6.59494 1.81692 6.6897 1.37437C6.31472 1.56781 5.99727 1.73134 5.73736 1.86494C5.94786 2.12518 6.15092 2.37638 6.3533 2.62828Z" fill="#FF9900"/>
</svg>
