<svg width="26" height="17" viewBox="0 0 26 17" fill="none" xmlns="http://www.w3.org/2000/svg">
<path d="M5.55752 11.2249C4.9196 11.2249 4.30726 11.2249 3.69491 11.2249C2.76006 11.2249 2.3182 10.9616 2.10154 10.2636C1.57444 10.2636 1.04236 10.2646 0.511001 10.263C0.175703 10.262 -0.00757416 10.1423 0.000239988 9.93349C0.00734376 9.73428 0.185648 9.62533 0.511001 9.62426C1.04165 9.62319 1.5723 9.62373 2.11645 9.62373C2.11645 9.40796 2.11645 9.21035 2.11645 8.98123C1.86782 8.98123 1.61422 8.9823 1.36061 8.98123C1.03739 8.97963 0.858376 8.86854 0.852693 8.66986C0.846299 8.46104 1.02958 8.34301 1.3663 8.34247C2.02339 8.3414 2.68049 8.34087 3.33759 8.34247C3.653 8.34301 3.83415 8.46317 3.83272 8.66345C3.8313 8.8632 3.65016 8.97802 3.33191 8.98123C3.22677 8.9823 3.12093 8.98123 2.99874 8.98123C2.99874 9.19593 2.99874 9.39834 2.99874 9.62373C3.25732 9.62373 3.51234 9.62212 3.76666 9.62426C4.08065 9.6264 4.26179 9.7471 4.25895 9.94791C4.2554 10.1477 4.07567 10.2609 3.75529 10.263C3.52442 10.2646 3.29355 10.2641 3.06268 10.2657C3.04705 10.2657 3.03213 10.2753 3.01721 10.2806C3.09322 10.5076 3.23459 10.5845 3.59688 10.5845C4.91108 10.5856 6.22528 10.5851 7.53947 10.5851C7.68155 10.5851 7.82362 10.5883 7.9657 10.584C8.30952 10.5744 8.51908 10.427 8.52121 10.1712C8.52761 9.37698 8.52761 8.58227 8.52121 7.7881C8.51908 7.55631 8.33083 7.39982 8.03958 7.38433C7.78526 7.37098 7.52882 7.38166 7.24396 7.38166C7.24396 7.6941 7.24609 7.99212 7.24325 8.29067C7.24111 8.54702 7.0962 8.66132 6.76303 8.66238C6.08817 8.66505 5.41331 8.66505 4.73846 8.66238C4.41523 8.66078 4.26606 8.54756 4.26321 8.30722C4.25966 8.0076 4.2625 7.70852 4.2625 7.38754C3.97338 7.38754 3.69846 7.36884 3.43207 7.39555C3.29994 7.4089 3.1671 7.49382 3.06339 7.56859C2.86519 7.71226 2.63503 7.74644 2.44678 7.63695C2.25 7.52213 2.22514 7.32986 2.39492 7.15735C2.65279 6.89405 3.00016 6.74397 3.43633 6.74237C4.9814 6.73756 6.52648 6.72902 8.07084 6.75038C8.37843 6.75465 8.68247 6.88604 9.00356 6.96241C9.51929 5.91348 10.2538 4.9484 11.963 4.55425C11.8436 4.4955 11.7634 4.46719 11.703 4.42393C10.6261 3.64952 10.3448 2.4676 10.9955 1.4646C11.6341 0.47869 13.0811 -0.122149 14.4692 0.0209842C16.0043 0.179606 17.175 1.02078 17.4244 2.14822C17.4549 2.28548 17.494 2.43128 17.462 2.56373C17.4357 2.67376 17.3093 2.76936 17.229 2.87243C17.1836 2.93118 17.0891 3.00168 17.1061 3.04868C17.1779 3.25216 17.2397 3.46847 17.3839 3.64364C17.6695 3.98973 17.6673 4.27225 17.266 4.55265C17.104 4.66587 17.0074 4.78764 16.9307 4.94145C16.7268 5.34896 16.319 5.58235 15.6804 5.64003C16.1485 6.05928 16.4121 6.58642 17.1871 6.71086C17.4002 6.74504 17.6354 6.76213 17.847 6.73222C18.5667 6.63128 19.2067 6.70178 19.7104 7.15575C19.8233 7.01208 19.9107 6.87536 20.0286 6.75519C20.4385 6.33807 20.9926 6.11483 21.6845 6.09987C22.0006 6.09293 22.1612 6.2147 22.1619 6.4529C22.1647 7.28072 22.1647 8.10854 22.1619 8.93637C22.1612 9.18632 22.0006 9.30488 21.6703 9.29847C21.5474 9.29634 21.4238 9.27925 21.3023 9.26162C21.1915 9.2456 21.0828 9.21996 20.9422 9.19273C20.977 9.26109 21.0018 9.31449 21.031 9.36577C21.4771 10.1493 21.9253 10.9322 22.3672 11.7173C22.4254 11.8209 22.4901 11.8674 22.6527 11.8701C24.4209 11.8968 25.9184 12.9542 25.9958 14.2227C26.0832 15.6599 24.8038 16.8247 22.9625 16.9839C21.2213 17.1345 19.5583 16.2137 19.2458 14.9143C19.2117 14.7728 19.1428 14.7461 18.9737 14.7466C16.9761 14.7498 14.9778 14.7498 12.9803 14.7466C12.8225 14.7466 12.7551 14.7706 12.7217 14.9031C12.4212 16.1026 10.9876 16.9871 9.37082 16.9817C7.74335 16.9764 6.33396 16.0994 6.03063 14.8935C5.99938 14.7696 5.93473 14.7445 5.78768 14.7466C5.44173 14.7525 5.09507 14.7504 4.74911 14.7477C4.41452 14.7455 4.26605 14.6318 4.26392 14.3786C4.25753 13.4483 4.54168 12.5686 5.10146 11.7414C5.21796 11.5678 5.38916 11.4129 5.55752 11.2249ZM13.2005 14.0998C12.7806 13.6859 12.7643 13.2293 12.7842 12.7652C12.7934 12.5585 12.7906 12.3513 12.7849 12.1446C12.7693 11.6255 12.2542 11.2297 11.5666 11.2265C10.2354 11.2206 8.9034 11.2142 7.57215 11.2297C6.88095 11.2377 6.31407 11.469 5.95959 11.924C5.44031 12.59 5.18955 13.3206 5.11922 14.0998C7.79947 14.0998 10.4691 14.0998 13.2005 14.0998ZM16.7793 7.29941C16.238 7.16856 15.826 6.87215 15.4744 6.51966C15.2613 6.30656 15.0609 6.08599 14.8429 5.87556C14.5132 5.55832 14.109 5.31424 13.577 5.21544C12.4205 5.00074 11.4544 5.23413 10.7063 5.93324C10.0634 6.53461 9.74377 7.24654 9.53492 7.98838C9.4447 8.30882 9.40066 8.63675 9.33175 8.98283C10.5408 8.98283 11.6753 8.9839 12.8098 8.97909C12.8666 8.97909 12.9582 8.92836 12.9731 8.88883C13.1287 8.46531 13.4072 8.09252 13.7716 7.7678C13.5876 7.56378 13.388 7.38059 13.2523 7.17337C13.1919 7.08044 13.2054 6.90847 13.2857 6.82996C13.3667 6.75092 13.5798 6.70178 13.719 6.71727C13.8377 6.73062 13.9613 6.84278 14.0359 6.93304C14.5402 7.5483 15.2449 7.97129 16.1514 8.20521C16.2629 8.23405 16.3808 8.24794 16.4554 8.26129C16.5662 7.9323 16.6692 7.62574 16.7793 7.29941ZM17.6112 9.04478C17.614 9.05707 17.6233 9.11689 17.6417 9.17457C17.9969 10.3212 18.3472 11.469 18.713 12.614C18.8657 13.0936 18.7734 13.538 18.458 13.9631C18.4267 14.0053 18.4004 14.0496 18.3606 14.1105C18.794 14.1105 19.1932 14.1047 19.5917 14.1132C19.7523 14.1164 19.846 14.0763 19.9384 13.9775C20.4612 13.4146 20.9898 12.8544 21.5289 12.3C21.6397 12.1857 21.6447 12.0965 21.573 11.9731C21.043 11.0577 20.5202 10.1402 19.9959 9.22317C19.8851 9.0293 19.775 8.83543 19.6912 8.68855C18.9716 8.81139 18.296 8.92729 17.6112 9.04478ZM16.5563 2.25397C16.4632 1.37487 15.2073 0.599926 13.9854 0.6528C12.5675 0.713685 11.4302 1.63924 11.5098 2.66735C11.5801 3.57047 12.6478 4.46345 13.6388 4.43461C13.6388 4.14888 13.6366 3.86262 13.6388 3.57688C13.6445 2.83345 14.4038 2.25931 15.3877 2.2545C15.777 2.25237 16.1656 2.25397 16.5563 2.25397ZM9.35662 10.5856C10.0464 10.5856 10.7724 10.5851 11.4984 10.5856C12.7629 10.5861 13.6352 11.2415 13.6359 12.1916C13.6359 12.402 13.6359 12.6119 13.6359 12.8186C14.2248 12.8186 14.7718 12.8186 15.3153 12.8186C15.3153 12.1969 15.3714 11.5817 15.3003 10.9755C15.2165 10.2603 14.6781 9.85338 13.7475 9.68515C13.5258 9.64509 13.2921 9.62693 13.0641 9.62586C11.9999 9.61999 10.9351 9.62319 9.87093 9.62319C9.71323 9.62319 9.55623 9.62319 9.35662 9.62319C9.35662 9.95058 9.35662 10.2593 9.35662 10.5856ZM17.4535 13.8627C17.884 13.5839 17.9898 13.2346 17.8847 12.8725C17.5181 11.6046 17.1182 10.3421 16.7246 9.07897C16.7083 9.02769 16.6287 8.95666 16.5662 8.94865C15.7628 8.84824 15.0517 8.59562 14.3669 8.20147C14.1723 8.47439 13.989 8.73182 13.7943 9.0042C13.9108 9.03357 13.9592 9.04852 14.0096 9.05814C15.3423 9.29954 16.1968 10.1151 16.194 11.1432C16.1926 11.6639 16.189 12.1841 16.199 12.7048C16.2004 12.7678 16.2558 12.8709 16.3183 12.887C16.9321 13.0466 17.2944 13.3692 17.4535 13.8627ZM20.0961 14.7589C20.246 15.748 21.5929 16.4776 22.9667 16.3216C24.2838 16.1721 25.257 15.2652 25.1369 14.2985C25.0084 13.2613 23.8853 12.4853 22.5412 12.5078C22.4752 12.5088 22.3807 12.5152 22.3494 12.5473C22.0894 12.8079 21.8408 13.0755 21.5893 13.3409C22.6762 12.8848 23.7212 13.2619 24.1147 13.8419C24.5424 14.4726 24.2099 15.2481 23.3695 15.5718C22.4205 15.9371 21.5083 15.6353 20.9152 14.7589C20.6424 14.7589 20.3696 14.7589 20.0961 14.7589ZM6.87598 14.7584C7.09336 15.7117 8.23777 16.4028 9.48164 16.3499C10.695 16.2986 11.7989 15.5616 11.8586 14.7498C11.6724 14.7498 11.4849 14.761 11.3016 14.7466C11.1027 14.7311 11.0139 14.7851 10.9329 14.925C10.658 15.4025 10.148 15.6647 9.46673 15.6957C8.81673 15.725 8.23138 15.5371 7.95575 15.0954C7.7398 14.7488 7.44712 14.7199 7.04789 14.7498C6.99603 14.7536 6.94347 14.7552 6.87598 14.7584ZM14.4905 4.80633C14.742 4.86134 14.9679 4.92009 15.2002 4.96015C15.8246 5.06803 16.0825 4.92917 16.2047 4.45384C16.2267 4.36679 16.329 4.28614 16.4142 4.21564C16.4881 4.15422 16.5897 4.11096 16.6224 4.0928C16.4448 3.67836 16.2814 3.29756 16.1088 2.89486C15.8892 2.89486 15.615 2.88365 15.3423 2.89753C14.8691 2.92103 14.5097 3.19181 14.4948 3.54858C14.477 3.96089 14.4905 4.37426 14.4905 4.80633ZM13.7588 13.4702C13.881 13.8365 14.3584 14.0993 14.9217 14.1084C15.3735 14.1153 15.826 14.1111 16.2778 14.1068C16.3886 14.1057 16.4995 14.0854 16.6096 14.0742C16.5641 13.7201 16.2984 13.4846 15.8836 13.475C15.1767 13.4584 14.4699 13.4702 13.7588 13.4702ZM19.2934 8.006C19.0341 7.41905 18.6682 7.23212 18.0751 7.37686C17.5856 7.49649 17.2695 7.9574 17.4258 8.32431C17.9465 8.37932 18.8394 8.22978 19.2934 8.006ZM21.2966 8.57266C21.2966 7.99051 21.2966 7.41104 21.2966 6.82942C20.8143 6.92342 20.4563 7.29888 20.4563 7.70051C20.4563 8.10107 20.8122 8.47546 21.2966 8.57266ZM21.8855 14.7498C22.1306 15.035 22.495 15.129 22.8758 15.0286C23.2246 14.9367 23.4647 14.6654 23.4398 14.3915C23.4121 14.0886 23.1117 13.8467 22.6989 13.7965C22.3828 13.758 22.044 13.8883 21.9196 14.0961C21.926 14.0993 21.9324 14.1052 21.9395 14.1052C22.1434 14.1073 22.348 14.1073 22.5519 14.1111C22.8453 14.1164 23.0179 14.2408 23.0122 14.4385C23.0065 14.6238 22.8332 14.7445 22.5561 14.7493C22.3452 14.7525 22.1335 14.7498 21.8855 14.7498ZM5.12774 7.38967C5.12774 7.60224 5.12774 7.80412 5.12774 8.00867C5.55468 8.00867 5.96599 8.00867 6.37232 8.00867C6.37232 7.79237 6.37232 7.58995 6.37232 7.38967C5.94681 7.38967 5.54189 7.38967 5.12774 7.38967ZM10.0705 14.7605C9.59459 14.7605 9.14919 14.7605 8.69597 14.7605C8.98935 15.1547 9.70612 15.16 10.0705 14.7605Z" fill="#FF9900"/>
</svg>
