<svg width="19" height="18" viewBox="0 0 19 18" fill="none" xmlns="http://www.w3.org/2000/svg">
<path fill-rule="evenodd" clip-rule="evenodd" d="M7.39279 11.2124C10.2444 11.2124 14.0358 11.5335 14.0358 14.3116C14.0358 17.2381 9.61801 17.4137 7.72302 17.4242L7.035 17.4242C5.01448 17.4137 0.749786 17.2391 0.749786 14.3291C0.749786 11.3994 5.16757 11.2236 7.06256 11.213L7.29023 11.2124C7.32571 11.2124 7.35992 11.2124 7.39279 11.2124ZM7.39279 12.5249C4.96116 12.5249 2.06229 12.8372 2.06229 14.3291C2.06229 15.5121 3.85604 16.1124 7.39279 16.1124C10.9295 16.1124 12.7233 15.506 12.7233 14.3116C12.7233 13.126 10.9295 12.5249 7.39279 12.5249ZM15.3681 10.8037C17.7359 11.158 18.232 12.2544 18.232 13.111C18.232 13.7489 17.9564 14.6125 16.6413 15.1104C16.5652 15.1393 16.4864 15.1533 16.4085 15.1533C16.1434 15.1533 15.894 14.9914 15.7951 14.7298C15.6665 14.3912 15.8371 14.0114 16.1758 13.8837C16.9195 13.6019 16.9195 13.258 16.9195 13.111C16.9195 12.6149 16.3324 12.2754 15.1748 12.103C14.816 12.0488 14.5684 11.7145 14.6218 11.3567C14.676 10.9979 15.0164 10.7573 15.3681 10.8037ZM7.39279 0.75C9.86991 0.75 11.886 2.766 11.886 5.24312C11.8912 6.43663 11.4283 7.56362 10.5848 8.41237C9.74304 9.262 8.61866 9.73187 7.42254 9.73625H7.39279C4.91479 9.73625 2.89879 7.72025 2.89879 5.24312C2.89879 2.766 4.91479 0.75 7.39279 0.75ZM13.5944 1.73332C15.3138 2.01507 16.5616 3.48595 16.5616 5.22982C16.5581 6.9842 15.2482 8.49095 13.5139 8.7342C13.4833 8.73857 13.4527 8.74032 13.4221 8.74032C13.1001 8.74032 12.8192 8.5032 12.7728 8.17507C12.7229 7.81632 12.9723 7.48382 13.3311 7.43395C14.4231 7.28082 15.2473 6.3332 15.2491 5.22895C15.2491 4.1317 14.4633 3.20595 13.3827 3.0292C13.0248 2.9697 12.7824 2.63282 12.8411 2.27495C12.8997 1.91707 13.2383 1.67645 13.5944 1.73332ZM7.39279 2.0625C5.63841 2.0625 4.21129 3.48962 4.21129 5.24312C4.21129 6.99662 5.63841 8.42375 7.39279 8.42375H7.41991C8.26341 8.42025 9.05791 8.08862 9.65379 7.4875C10.2505 6.88812 10.5769 6.091 10.5734 5.24575C10.5734 3.48962 9.14629 2.0625 7.39279 2.0625Z" fill="#FF9900"/>
</svg>
