<svg width="343" height="64" viewBox="0 0 343 64" fill="none" xmlns="http://www.w3.org/2000/svg">
<path fill-rule="evenodd" clip-rule="evenodd" d="M-5 16.806L11.3413 18.8411C26.6613 20.8762 59.344 24.9465 91.0053 20.8762C122.667 16.806 154.328 5.61286 187.011 1.54262C218.672 -2.52761 250.333 1.54262 281.995 12.7358C314.677 24.9465 346.339 44.2801 361.659 53.4381L378 62.5961V86H361.659C346.339 86 314.677 86 281.995 86C250.333 86 218.672 86 187.011 86C154.328 86 122.667 86 91.0053 86C59.344 86 26.6613 86 11.3413 86H-5V16.806Z" fill="white" fill-opacity="0.1"/>
</svg>
