<svg width="313" height="46" viewBox="0 0 313 46" fill="none" xmlns="http://www.w3.org/2000/svg">
<path fill-rule="evenodd" clip-rule="evenodd" d="M313 13.6793L299.645 15.3358C287.125 16.9923 260.416 20.3053 234.541 16.9923C208.667 13.6793 182.792 4.5686 156.083 1.25562C130.208 -2.05736 104.333 1.25562 78.4587 10.3663C51.7493 20.3053 25.8747 36.0419 13.3547 43.4961L0 50.9503V70H13.3547C25.8747 70 51.7493 70 78.4587 70C104.333 70 130.208 70 156.083 70C182.792 70 208.667 70 234.541 70C260.416 70 287.125 70 299.645 70H313V13.6793Z" fill="white" fill-opacity="0.1"/>
</svg>
