<svg width="375" height="236" viewBox="0 0 375 236" fill="none" xmlns="http://www.w3.org/2000/svg">
<path fill-rule="evenodd" clip-rule="evenodd" d="M191.807 0V18.6142H198.41V91.0501H207.082V68.7429H211.65V63.3547L221.641 68.7429H224.089V55.3423L236.043 35.9197L247.997 55.3423V100.913H253.608V109.769H261.888V73.6263H268.75L268.465 58.63H276.406V54.3349H284.452L285.69 28.3619L286.927 54.3349H288.475V58.63H290.563L289.798 98.7916H291.28V81.0731L307.916 68.7429V91.0501H324.553V73.6263H334.822V63.3547L352.414 78.9431V63.3547L376 84.2553V237H358.409H352.414H335.572H334.822H324.553H307.916H291.28H287.832H272.908H271.196H262.851H261.888H247.997H238.942H224.089H207.082H198.41H183.711H177.427H162.688H158.692H145.157H137.788H125.883H121.57H115.431H104.979H102.296H91.8442H86.204H81.3919H62.6184H54.8402H44.7236H34.6058H26.8169H24.4892H13.1894H10.1808H0V88.1382H8.01163L7.44998 58.63H24.4892V15.9155H34.6058V24.9953H44.7236V33.3083H54.8402V76.167H62.6184V56.2403H65.388V54.0427H83.4338V56.2403H86.204V97.7911H91.8442V44.3898H94.615V42.1922H112.66V44.3898H115.431V75.1407H121.57V56.2403H124.341V54.0427H142.386V56.2403H145.157V63.3547L150.948 71.1819V84.3047H158.692V76.167H162.688V56.2403H177.427V44.443L183.711 37.7142V18.6142H190.314V0H191.807Z" fill="#FF9900" fill-opacity="0.39"/>
<path fill-rule="evenodd" clip-rule="evenodd" d="M253.06 102V112.603H248.828V153.864H243.269V141.157H240.341V138.088L233.938 141.157H232.369V133.524L224.707 122.461L217.045 133.524V159.482H213.448V164.527H208.141V143.939H203.742L203.926 135.397H198.836V132.95H193.679L192.885 118.156L192.092 132.95H191.1V135.397H189.761L190.252 158.274H189.302V148.181L178.639 141.157V153.864H167.975V143.939H161.393V138.088L150.118 146.968V138.088L135 149.994V237H146.275H150.118H160.913H161.393H167.975H178.639H189.302H191.512H201.078H202.175H207.524H208.141H217.045H222.848H232.369H243.269H248.828H258.249H262.277H271.724H274.285H282.96H287.684H295.314H298.078H302.014H308.713H310.433H317.132H320.747H323.831H335.864H340.85H347.334H353.819H358.811H360.303H367.546H369.475H376V152.205H370.865L371.225 135.397H360.303V111.066H353.819V116.238H347.334V120.973H340.85V145.386H335.864V134.036H334.089V132.784H322.522V134.036H320.747V157.704H317.132V127.285H315.356V126.034H303.79V127.285H302.014V144.802H298.078V134.036H296.303V132.784H284.737V134.036H282.96V138.088L279.249 142.547V150.022H274.285V145.386H271.724V134.036H262.277V127.316L258.249 123.483V112.603H254.017V102H253.06Z" fill="#FF9900" fill-opacity="0.39"/>
<path fill-rule="evenodd" clip-rule="evenodd" d="M39.6064 102V112.603H36.3227V153.864H32.0096V141.157H29.738V138.088L24.769 141.157H23.5517V133.524L17.6063 122.461L11.6612 133.524V159.482H8.87036V164.527H4.7524V143.939H1.33958L1.48174 135.397H-2.4677V132.95H-6.46928L-7.08505 118.156L-7.70052 132.95H-8.47023V135.397H-9.50871L-9.1282 158.274H-9.86533V148.181L-18.1391 141.157V153.864H-26.4132V143.939H-31.5207V138.088L-40.2696 146.968V138.088L-52 149.994V237H135V152.205H131.015L131.295 135.397H122.821V111.066H117.789V116.238H112.757V120.973H107.726V145.386H103.857V134.036H102.48V132.784H93.505V134.036H92.1273V157.704H89.3222V127.285H87.9441V126.034H78.9695V127.285H77.5915V144.802H74.5381V134.036H73.1604V132.784H64.1858V134.036H62.8074V138.088L59.9275 142.547V150.022H56.0761V145.386H54.0885V134.036H46.7583V127.316L43.6332 123.483V112.603H40.3492V102H39.6064Z" fill="#FF9900" fill-opacity="0.39"/>
</svg>
