<svg width="18" height="18" viewBox="0 0 18 18" fill="none" xmlns="http://www.w3.org/2000/svg">
<path d="M3.80079 0C4.00491 0.0478236 4.21137 0.0862699 4.4122 0.144408C5.72324 0.524184 6.69643 1.70899 6.83345 3.06352C6.88084 3.53238 6.82922 3.98436 6.70347 4.43446C6.68704 4.49354 6.70206 4.59153 6.74241 4.63232C7.60909 5.50674 8.48092 6.37554 9.35229 7.24527C9.36824 7.26121 9.38936 7.27246 9.39874 7.27903C10.7131 5.96528 12.0222 4.6567 13.3441 3.33546C13.1883 3.12822 13.2957 2.94021 13.413 2.72922C13.6758 2.25615 14.0291 1.89419 14.5054 1.62835C14.9751 1.36625 15.4167 1.05399 15.8718 0.765177C16.1055 0.616549 16.2378 0.630146 16.4326 0.823315C16.6906 1.07931 16.9478 1.33578 17.2035 1.59412C17.3818 1.77416 17.3992 1.91435 17.2645 2.12674C16.8563 2.76908 16.4471 3.41094 16.0328 4.04953C15.9835 4.12548 15.9094 4.19066 15.8338 4.24223C15.6306 4.38054 15.4176 4.50479 15.2144 4.6431C15.0375 4.76313 14.8639 4.80345 14.7001 4.67546C13.3797 5.99482 12.0673 7.30669 10.744 8.62934C10.7614 8.64762 10.7989 8.69076 10.8388 8.73108C11.6722 9.56424 12.5069 10.396 13.3375 11.232C13.4219 11.3168 13.4919 11.3403 13.612 11.3032C15.6175 10.6904 17.7239 12.0454 17.9801 14.1225C18.0214 14.4554 17.9876 14.7986 17.9754 15.1366C17.9698 15.2871 17.8811 15.4011 17.7337 15.4522C17.5855 15.5037 17.4583 15.4587 17.3499 15.35C16.9187 14.9186 16.4856 14.4901 16.0581 14.055C15.9741 13.9692 15.9014 13.9453 15.7817 13.9804C15.3496 14.1061 14.9127 14.2148 14.4801 14.3386C14.4275 14.3536 14.3642 14.4146 14.3492 14.4666C14.2201 14.9158 14.0958 15.3664 13.9841 15.8202C13.9691 15.8807 14.0108 15.9787 14.0587 16.0279C14.4726 16.4513 14.8921 16.8691 15.3134 17.2849C15.4378 17.4078 15.5297 17.5376 15.465 17.7191C15.4016 17.8968 15.2567 17.9507 15.0798 17.9718C13.1887 18.1997 11.5732 17.0266 11.2175 15.1624C11.1157 14.6284 11.164 14.1033 11.3095 13.5824C11.3273 13.5181 11.3156 13.4126 11.2733 13.37C10.4034 12.4909 9.52684 11.6178 8.65172 10.7439C8.64375 10.7359 8.63155 10.7322 8.64093 10.7378C8.43212 10.9464 8.22754 11.1513 7.99198 11.3867C8.03703 11.4223 8.1168 11.473 8.18155 11.5381C8.58509 11.9437 8.67425 12.4984 8.41711 12.9705C8.15762 13.4459 7.65132 13.6635 7.08495 13.5589C7.01926 13.5467 6.92025 13.596 6.8677 13.648C5.65755 14.8502 4.44974 16.0551 3.24569 17.2638C2.93787 17.5728 2.57984 17.706 2.16082 17.5737C1.99518 17.5212 1.83376 17.4125 1.70472 17.2924C1.36594 16.9774 1.04451 16.6431 0.718396 16.3139C0.261363 15.853 0.260894 15.2487 0.72215 14.7859C1.93136 13.5744 3.14246 12.3647 4.35589 11.157C4.44317 11.0702 4.47226 10.9989 4.44552 10.8691C4.33806 10.3468 4.58253 9.84087 5.04097 9.59284C5.49754 9.34575 6.05076 9.42452 6.43694 9.79492C6.51296 9.86759 6.58006 9.94964 6.64059 10.0162C6.85972 9.79773 7.06525 9.59284 7.27969 9.37904C7.25669 9.35419 7.21822 9.31153 7.17786 9.27074C6.3445 8.43757 5.50927 7.60629 4.67919 6.77031C4.59192 6.68264 4.52153 6.67092 4.40375 6.70514C2.38042 7.29731 0.338317 5.98263 0.0333156 3.89621C0.028154 3.86245 0.0112616 3.83057 0 3.79775C0 3.53988 0 3.28201 0 3.02414C0.0112616 2.99835 0.0314386 2.97303 0.0328463 2.94677C0.0412925 2.76251 0.106047 2.61201 0.291863 2.54918C0.482372 2.48495 0.611411 2.59279 0.736696 2.71985C1.14399 3.13197 1.55785 3.53754 1.96327 3.95107C2.0482 4.03781 2.12187 4.05656 2.24012 4.0228C2.66055 3.90231 3.08474 3.79306 3.5094 3.68616C3.61216 3.66038 3.66237 3.60833 3.68864 3.50612C3.7961 3.08227 3.90543 2.65843 4.02649 2.23833C4.06075 2.12018 4.04151 2.04657 3.95517 1.9617C3.52066 1.53551 3.09272 1.10275 2.66149 0.673281C2.55263 0.564974 2.50336 0.43932 2.55216 0.29163C2.60284 0.136907 2.72249 0.0618893 2.88015 0.0384464C2.92895 0.0309447 2.97729 0.013128 3.02656 0C3.28463 0 3.54271 0 3.80079 0ZM17.2387 14.258C17.2509 14.2491 17.2626 14.2402 17.2748 14.2308C17.2748 14.198 17.2795 14.1642 17.2744 14.1323C17.0064 12.4651 15.2341 11.4312 13.6566 12.0375C13.3755 12.1453 13.1953 12.0961 12.9893 11.8893C10.7018 9.59284 8.40913 7.30153 6.11083 5.01538C5.90812 4.81377 5.86448 4.63513 5.96959 4.3632C6.53267 2.90411 5.69133 1.24201 4.18697 0.815345C4.05371 0.777836 3.91528 0.759082 3.77921 0.731419C3.80361 0.807374 3.83786 0.846289 3.87446 0.882391C4.13958 1.14777 4.40376 1.41408 4.67075 1.67757C4.79932 1.80417 4.84202 1.9406 4.79087 2.12205C4.61866 2.73485 4.45584 3.35046 4.29536 3.96701C4.25078 4.13721 4.15741 4.24364 3.98708 4.28865C3.35408 4.45603 2.72155 4.62435 2.08997 4.79642C1.9445 4.8358 1.82391 4.80345 1.71833 4.70406C1.63762 4.62763 1.5602 4.54793 1.48184 4.46822C1.24535 4.22723 1.00885 3.98576 0.745143 3.71617C0.745143 3.80572 0.739512 3.84558 0.746081 3.88355C1.04123 5.57707 2.79428 6.56917 4.40704 5.94934C4.64213 5.85885 4.81058 5.89777 4.98795 6.07547C7.30221 8.39538 9.61975 10.7111 11.9415 13.0235C12.1208 13.2021 12.1531 13.3714 12.0626 13.6044C11.454 15.1699 12.3901 16.8892 14.0329 17.2348C14.1014 17.2493 14.1713 17.2563 14.2863 17.2737C14.2121 17.194 14.1741 17.1513 14.1342 17.111C13.8818 16.8578 13.6336 16.6004 13.3746 16.3538C13.223 16.2094 13.1737 16.0579 13.2329 15.8507C13.4041 15.2496 13.5646 14.6457 13.7223 14.0404C13.7687 13.8623 13.8658 13.7586 14.0446 13.7118C14.6668 13.5495 15.2886 13.385 15.9079 13.2129C16.0755 13.1665 16.2059 13.2031 16.3237 13.3207C16.4893 13.4867 16.6568 13.6508 16.8211 13.8182C16.9614 13.9631 17.0993 14.1112 17.2387 14.258ZM4.89363 11.6305C4.87956 11.6418 4.85516 11.6577 4.83498 11.6779C3.62811 12.8833 2.42124 14.0883 1.21625 15.2951C1.03982 15.4719 1.04311 15.6303 1.22329 15.8127C1.52782 16.1212 1.83611 16.4265 2.14299 16.7331C2.39309 16.983 2.52072 16.982 2.77458 16.7289C3.93968 15.5647 5.10479 14.4005 6.26943 13.2363C6.31025 13.1955 6.3492 13.1524 6.38017 13.1196C5.8809 12.6198 5.38961 12.1275 4.89363 11.6305ZM14.0798 3.03867C14.2882 3.30264 14.2797 3.43767 14.0399 3.67726C12.7097 5.00694 11.3784 6.33662 10.0482 7.66677C10.0041 7.71084 9.96323 7.75726 9.94587 7.77602C10.0402 7.89182 10.1237 7.99403 10.2208 8.11359C10.2842 8.04092 10.3269 7.98466 10.3766 7.93496C11.69 6.62122 13.0043 5.30841 14.3187 3.99514C14.5791 3.73493 14.6959 3.72414 14.9836 3.93513C15.2632 3.794 15.5114 3.6224 15.6597 3.32796C15.7461 3.15635 15.8648 3.00069 15.9685 2.838C16.1595 2.53887 16.35 2.23927 16.5189 1.97389C16.3533 1.80135 16.2054 1.64663 16.0548 1.48956C15.6166 1.76947 15.1802 2.06626 14.725 2.33116C14.4341 2.50089 14.2253 2.72641 14.0798 3.03867ZM5.10197 10.6454C5.15547 10.7514 5.18644 10.8794 5.26574 10.9605C5.85556 11.5625 6.4482 12.1622 7.05399 12.7473C7.32192 13.0061 7.73953 12.8739 7.83385 12.5213C7.8864 12.3258 7.81086 12.1687 7.67337 12.0318C7.10982 11.4701 6.54721 10.9066 5.98413 10.3444C5.95129 10.3116 5.9175 10.2774 5.87949 10.2511C5.72136 10.1433 5.55385 10.1259 5.38304 10.2164C5.21928 10.3032 5.13717 10.4438 5.10197 10.6454ZM7.21869 10.5395C7.29846 10.6178 7.39559 10.7129 7.46128 10.7776C7.66211 10.5779 7.8667 10.3749 8.06331 10.1799C7.98917 10.1048 7.90001 10.0148 7.8179 9.93136C7.61941 10.1325 7.41999 10.3346 7.21869 10.5395Z" fill="#FF9900"/>
</svg>
